<svg id="layer_1" enable-background="new 0 0 32 32" viewBox="0 0 32 32" xmlns="http://www.w3.org/2000/svg"><path d="m2.3037109 20.5410156c-.3964844.3847656-.40625 1.0175781-.0214844 1.4140625l3.8457031 3.9638672c.0002441.0002441.0006104.0003662.0008545.0006104.1817627.1881104.4343262.3070068.7169189.3070068s.5351562-.1188965.7169189-.3070068c.0002441-.0002441.0006104-.0003662.0008545-.0006104l3.8466797-3.9638672c.3847656-.3964844.375-1.0292969-.0214844-1.4140625s-1.0292969-.375-1.4140625.0214844l-2.1289062 2.1940308v-15.9830933c0-.5527344-.4472656-1-1-1s-1 .4472656-1 1v15.9827881l-2.1279296-2.1937256c-.3847656-.3964844-1.0175781-.40625-1.4140625-.0214844z"/><path d="m26.8798828 12.9228516c0-.5527344-.4472656-1-1-1h-10.8515625c-.5527344 0-1 .4472656-1 1s.4472656 1 1 1h10.8515625c.5527344 0 1-.4472657 1-1z"/><path d="m23.7597656 19.0732422c0-.5527344-.4472752-1-1-1h-7.7314453c-.5527344 0-1 .4472656-1 1s.4472656 1 1 1h7.7314453c.5527249 0 1-.4472656 1-1z"/><path d="m15.0283203 24.2265625c-.5527344 0-1 .4472656-1 1s.4472656 1 1 1h4.6113281c.5527344 0 1-.4472656 1-1s-.4472656-1-1-1z"/><path d="m29 5.7734375h-13.9716797c-.5527344 0-1 .4472656-1 1s.4472656 1 1 1h13.9716797c.5527344 0 1-.4472656 1-1s-.4472656-1-1-1z"/></svg>